@startuml
title classDiagram01
ItemManagerUser -- ItemManager
ItemManager -- Item
ItemManagerUser --o Item

class ItemManagerUser {
    +void main(String[]:args)
}

class ItemManager{
    -List<Item> itemList
    +void regist(Item:item)
    +void displayAll()
    +void serachDisplay()
}

class Item{
    -String name
    -int price
    +void Item(String:name, int:price)
    ..getter..
    +String getName()
    +int getPrice()
    ..setter..
    +void setName(String: name)
    +void setPrice(int: price)
}
@enduml